<svg width="37" height="36" viewBox="0 0 37 36" fill="none" xmlns="http://www.w3.org/2000/svg">
<path d="M37 17.6449C37 7.92256 28.6935 0 18.5 0C8.3065 0 0 7.92256 0 17.6449C0 22.7619 2.3125 27.3672 5.9755 30.5963C5.9755 30.6139 5.9755 30.6139 5.957 30.6315C6.142 30.808 6.364 30.9492 6.549 31.108C6.66 31.1962 6.7525 31.2844 6.8635 31.355C7.1965 31.6197 7.5665 31.8667 7.918 32.1137C8.0475 32.2019 8.1585 32.2725 8.288 32.3607C8.6395 32.5901 9.0095 32.8019 9.398 32.996C9.5275 33.0665 9.6755 33.1548 9.805 33.2253C10.175 33.4194 10.5635 33.5959 10.9705 33.7547C11.1185 33.8253 11.2665 33.8959 11.4145 33.9488C11.8215 34.1076 12.2285 34.2488 12.6355 34.3723C12.7835 34.4252 12.9315 34.4781 13.0795 34.5134C13.5235 34.6369 13.9675 34.7428 14.4115 34.8487C14.541 34.884 14.6705 34.9193 14.8185 34.9369C15.3365 35.0428 15.8545 35.1134 16.391 35.1663C16.465 35.1663 16.539 35.1839 16.613 35.2016C17.242 35.2545 17.871 35.2898 18.5 35.2898C19.129 35.2898 19.758 35.2545 20.3685 35.2016C20.4425 35.2016 20.5165 35.1839 20.5905 35.1663C21.127 35.1134 21.645 35.0428 22.163 34.9369C22.2925 34.9193 22.422 34.8663 22.57 34.8487C23.014 34.7428 23.4765 34.6546 23.902 34.5134C24.05 34.4605 24.198 34.4076 24.346 34.3723C24.753 34.2311 25.1785 34.1076 25.567 33.9488C25.715 33.8959 25.863 33.8253 26.011 33.7547C26.3995 33.5959 26.788 33.4194 27.1765 33.2253C27.3245 33.1548 27.454 33.0665 27.5835 32.996C27.9535 32.7842 28.3235 32.5901 28.6935 32.3607C28.823 32.2902 28.934 32.2019 29.0635 32.1137C29.4335 31.8667 29.785 31.6197 30.118 31.355C30.229 31.2668 30.3215 31.1785 30.4325 31.108C30.636 30.9492 30.8395 30.7904 31.0245 30.6315C31.0245 30.6139 31.0245 30.6139 31.006 30.5963C34.6875 27.3672 37 22.7619 37 17.6449ZM27.639 26.4144C22.6255 23.203 14.4115 23.203 9.361 26.4144C8.547 26.9261 7.881 27.526 7.326 28.1789C4.514 25.4616 2.775 21.7385 2.775 17.6449C2.775 9.36944 9.8235 2.64674 18.5 2.64674C27.1765 2.64674 34.225 9.36944 34.225 17.6449C34.225 21.7385 32.486 25.4616 29.674 28.1789C29.1375 27.526 28.453 26.9261 27.639 26.4144Z" fill="#557029"/>
<path d="M18.5 8.69836C14.6705 8.69836 11.5625 11.6627 11.5625 15.3152C11.5625 18.8971 14.504 21.8085 18.4075 21.9144H18.574H18.7035H18.7405C22.4775 21.7909 25.419 18.8971 25.4375 15.3152C25.4375 11.6627 22.3295 8.69836 18.5 8.69836Z" fill="#557029"/>
</svg>
