<svg width="42" height="41" viewBox="0 0 42 41" fill="none" xmlns="http://www.w3.org/2000/svg">
<path d="M37.3701 37.3604C36.9794 37.3604 36.6082 37.2113 36.3347 36.9504L23.8712 25.063C23.3047 24.5226 23.3047 23.6283 23.8712 23.088L38.972 8.68514C39.3432 8.33112 39.9097 8.2007 40.4176 8.33112C40.9255 8.48018 41.3161 8.87146 41.4333 9.35591C41.8044 10.9397 42 12.7097 42 14.7593V25.9387C42 31.0999 40.8669 34.5841 38.4055 36.9504C38.132 37.2113 37.7218 37.2672 37.3701 37.3604ZM26.9771 24.0755L37.2529 33.8761C38.4836 32.0688 39.0697 29.4975 39.0697 25.9387V14.7593C39.0697 13.9954 39.05 13.2873 38.9914 12.6166L26.9771 24.0755Z" fill="#A3BC1C"/>
<path d="M9.80672 39.8758C9.68951 39.8758 9.59187 39.8571 9.47466 39.8385C3.00846 38.4224 0 34.0066 0 25.9387V14.7593C0 4.64193 4.5322 0.319214 15.1399 0.319214H26.8611C35.3199 0.319214 39.9498 3.18862 41.4344 9.35594C41.5517 9.82175 41.3954 10.3248 41.0437 10.6602L10.8421 39.4659C10.5686 39.7267 10.1974 39.8758 9.80672 39.8758ZM15.1399 3.11407C6.1341 3.11407 2.9303 6.16978 2.9303 14.7593V25.9387C2.9303 32.4042 4.80571 35.6462 9.35745 36.9319L38.3674 9.26276C37.039 4.92141 33.6203 3.13269 26.8416 3.13269H15.1399V3.11407Z" fill="#A3BC1C"/>
<path d="M26.8619 40.3786H15.1406C12.9917 40.3786 11.1554 40.2109 9.47536 39.8383C8.94791 39.7265 8.53763 39.3538 8.40088 38.8694C8.2446 38.3849 8.40088 37.8632 8.77205 37.4906L23.8729 23.0877C24.4395 22.5474 25.3772 22.5474 25.9437 23.0877L38.4072 34.9752C38.6807 35.2361 38.837 35.5901 38.837 35.9627C38.837 36.3354 38.6807 36.6894 38.4072 36.9502C35.9262 39.2979 32.2731 40.3786 26.8619 40.3786ZM12.894 37.5092C13.5973 37.5651 14.3396 37.5837 15.1406 37.5837H26.8619C30.6126 37.5837 33.289 37.0248 35.1839 35.8509L24.9083 26.0503L12.894 37.5092Z" fill="#A3BC1C"/>
<path d="M15.3723 22.7899C14.1416 22.7899 12.9108 22.3613 11.9341 21.4856C8.82795 18.6721 7.57774 15.5792 8.32009 12.5608C9.06243 9.46783 11.895 7.38098 15.3723 7.38098C18.8497 7.38098 21.6823 9.46783 22.4246 12.5608C23.1474 15.5979 21.8972 18.6721 18.7911 21.4856C17.8338 22.3427 16.603 22.7899 15.3723 22.7899ZM11.1722 13.1757C10.5471 15.7097 12.3443 17.9829 13.9658 19.4549C14.7667 20.1814 15.9975 20.1814 16.7789 19.4549C18.3808 18.0016 20.1781 15.7283 19.5725 13.1757C19.045 10.9584 16.9742 10.1572 15.3723 10.1572C13.7704 10.1572 11.7192 10.9584 11.1722 13.1757Z" fill="#A3BC1C"/>
<path d="M15.4337 15.6728C14.3593 15.6728 13.4802 14.8343 13.4802 13.8095C13.4802 12.7847 14.3397 11.9463 15.4337 11.9463H15.4533C16.5277 11.9463 17.4068 12.7847 17.4068 13.8095C17.4068 14.8343 16.5082 15.6728 15.4337 15.6728Z" fill="#A3BC1C"/>
</svg>
