<svg width="37" height="36" viewBox="0 0 37 36" fill="none" xmlns="http://www.w3.org/2000/svg">
<path d="M37 18C37 8.27766 28.6935 0.355103 18.5 0.355103C8.3065 0.355103 0 8.27766 0 18C0 23.117 2.3125 27.7223 5.9755 30.9514C5.9755 30.969 5.9755 30.969 5.957 30.9867C6.142 31.1631 6.364 31.3043 6.549 31.4631C6.66 31.5513 6.7525 31.6395 6.8635 31.7101C7.1965 31.9748 7.5665 32.2218 7.918 32.4688C8.0475 32.557 8.1585 32.6276 8.288 32.7159C8.6395 32.9452 9.0095 33.157 9.398 33.3511C9.5275 33.4216 9.6755 33.5099 9.805 33.5805C10.175 33.7745 10.5635 33.951 10.9705 34.1098C11.1185 34.1804 11.2665 34.251 11.4145 34.3039C11.8215 34.4627 12.2285 34.6039 12.6355 34.7274C12.7835 34.7803 12.9315 34.8332 13.0795 34.8685C13.5235 34.992 13.9675 35.0979 14.4115 35.2038C14.541 35.2391 14.6705 35.2744 14.8185 35.292C15.3365 35.3979 15.8545 35.4685 16.391 35.5214C16.465 35.5214 16.539 35.539 16.613 35.5567C17.242 35.6096 17.871 35.6449 18.5 35.6449C19.129 35.6449 19.758 35.6096 20.3685 35.5567C20.4425 35.5567 20.5165 35.539 20.5905 35.5214C21.127 35.4685 21.645 35.3979 22.163 35.292C22.2925 35.2744 22.422 35.2214 22.57 35.2038C23.014 35.0979 23.4765 35.0097 23.902 34.8685C24.05 34.8156 24.198 34.7627 24.346 34.7274C24.753 34.5862 25.1785 34.4627 25.567 34.3039C25.715 34.251 25.863 34.1804 26.011 34.1098C26.3995 33.951 26.788 33.7745 27.1765 33.5805C27.3245 33.5099 27.454 33.4216 27.5835 33.3511C27.9535 33.1393 28.3235 32.9452 28.6935 32.7159C28.823 32.6453 28.934 32.557 29.0635 32.4688C29.4335 32.2218 29.785 31.9748 30.118 31.7101C30.229 31.6219 30.3215 31.5336 30.4325 31.4631C30.636 31.3043 30.8395 31.1455 31.0245 30.9867C31.0245 30.969 31.0245 30.969 31.006 30.9514C34.6875 27.7223 37 23.117 37 18ZM27.639 26.7695C22.6255 23.5581 14.4115 23.5581 9.361 26.7695C8.547 27.2812 7.881 27.8811 7.326 28.534C4.514 25.8167 2.775 22.0936 2.775 18C2.775 9.72455 9.8235 3.00184 18.5 3.00184C27.1765 3.00184 34.225 9.72455 34.225 18C34.225 22.0936 32.486 25.8167 29.674 28.534C29.1375 27.8811 28.453 27.2812 27.639 26.7695Z" fill="#557029"/>
<path d="M18.5 9.05347C14.6705 9.05347 11.5625 12.0178 11.5625 15.6703C11.5625 19.2522 14.504 22.1636 18.4075 22.2695H18.574H18.7035H18.7405C22.4775 22.146 25.419 19.2522 25.4375 15.6703C25.4375 12.0178 22.3295 9.05347 18.5 9.05347Z" fill="#557029"/>
</svg>
