<svg width="37" height="32" viewBox="0 0 37 32" fill="none" xmlns="http://www.w3.org/2000/svg">
<path d="M24.2529 31.1408C23.5277 31.1408 22.8025 30.996 22.2123 30.7226L13.3585 26.4923C12.8526 26.251 11.8576 26.2671 11.3685 26.5405L7.38855 28.712C5.66839 29.6449 3.89765 29.7736 2.56537 29.0176C1.21623 28.2777 0.457336 26.7657 0.457336 24.8677V9.23326C0.457336 7.76954 1.46919 6.11281 2.80147 5.389L10.1037 1.39998C11.3348 0.724417 13.2067 0.676162 14.4715 1.28738L23.3253 5.51768C23.8313 5.75895 24.8094 5.72678 25.3153 5.46942L29.2784 3.31406C30.9986 2.38115 32.7693 2.25247 34.1016 3.00845C35.4507 3.74835 36.2096 5.26032 36.2096 7.15832V22.8089C36.2096 24.2726 35.1978 25.9293 33.8655 26.6531L26.5633 30.6421C25.9224 30.9638 25.0792 31.1408 24.2529 31.1408ZM12.431 23.9187C13.1561 23.9187 13.8813 24.0635 14.4715 24.3369L23.3253 28.5672C23.8313 28.8085 24.8094 28.7763 25.3153 28.519L32.6175 24.5299C33.1572 24.2404 33.68 23.3718 33.68 22.7928V7.14224C33.68 6.1289 33.3764 5.37291 32.8199 5.08339C32.2803 4.79386 31.437 4.90646 30.5264 5.40508L26.5633 7.56044C25.3322 8.236 23.4603 8.28426 22.1954 7.67303L13.3416 3.44274C12.8357 3.20147 11.8576 3.23364 11.3516 3.491L4.04942 7.48002C3.50977 7.76954 2.98698 8.63812 2.98698 9.23326V24.8838C2.98698 25.8971 3.29053 26.6531 3.83019 26.9426C4.36984 27.2483 5.21306 27.1196 6.14059 26.621L10.1037 24.4656C10.7614 24.0956 11.6046 23.9187 12.431 23.9187Z" fill="white"/>
<path d="M12.2986 25.2534C11.6071 25.2534 11.0338 24.7066 11.0338 24.0471V3.1369C11.0338 2.47742 11.6071 1.93054 12.2986 1.93054C12.99 1.93054 13.5634 2.47742 13.5634 3.1369V24.0471C13.5634 24.7066 12.99 25.2534 12.2986 25.2534Z" fill="white"/>
<path d="M24.3902 30.079C23.6988 30.079 23.1254 29.5321 23.1254 28.8726V7.35125C23.1254 6.69178 23.6988 6.1449 24.3902 6.1449C25.0816 6.1449 25.655 6.69178 25.655 7.35125V28.8726C25.655 29.5321 25.0816 30.079 24.3902 30.079Z" fill="white"/>
</svg>
