<svg width="15" height="16" viewBox="0 0 15 16" fill="none" xmlns="http://www.w3.org/2000/svg">
<path d="M10.6478 0.5H4.35967C1.62831 0.5 0 2.1275 0 4.8575V11.135C0 13.8725 1.62831 15.5 4.35967 15.5H10.6403C13.3717 15.5 15 13.8725 15 11.1425V4.8575C15.0075 2.1275 13.3792 0.5 10.6478 0.5ZM11.2556 11.9375H3.75187C3.44422 11.9375 3.18909 11.6825 3.18909 11.375C3.18909 11.0675 3.44422 10.8125 3.75187 10.8125H11.2556C11.5633 10.8125 11.8184 11.0675 11.8184 11.375C11.8184 11.6825 11.5633 11.9375 11.2556 11.9375ZM11.2556 8.5625H3.75187C3.44422 8.5625 3.18909 8.3075 3.18909 8C3.18909 7.6925 3.44422 7.4375 3.75187 7.4375H11.2556C11.5633 7.4375 11.8184 7.6925 11.8184 8C11.8184 8.3075 11.5633 8.5625 11.2556 8.5625ZM11.2556 5.1875H3.75187C3.44422 5.1875 3.18909 4.9325 3.18909 4.625C3.18909 4.3175 3.44422 4.0625 3.75187 4.0625H11.2556C11.5633 4.0625 11.8184 4.3175 11.8184 4.625C11.8184 4.9325 11.5633 5.1875 11.2556 5.1875Z" fill="white"/>
</svg>
