<svg width="183" height="124" viewBox="0 0 183 124" fill="none" xmlns="http://www.w3.org/2000/svg">
<path d="M178.792 123.996C179.336 124.019 179.879 123.933 180.389 123.742C180.898 123.551 181.364 123.261 181.757 122.887C182.15 122.514 182.463 122.065 182.676 121.569C182.89 121.073 183 120.539 183 120C182.999 99.0079 177.439 78.3836 166.876 60.1859C156.314 41.9881 141.117 26.8534 122.803 16.2927C104.49 5.73197 83.7007 0.114735 62.5106 0.00173909C41.3206 -0.111257 20.4714 5.28394 2.04424 15.6487C1.57066 15.9151 1.15637 16.2736 0.826283 16.7027C0.496197 17.1318 0.257138 17.6226 0.123489 18.1456C-0.0101603 18.6686 -0.0356408 19.213 0.0485846 19.746C0.13281 20.279 0.325 20.7896 0.61359 21.2471L17.5389 48.0794C18.085 48.9452 18.9446 49.5713 19.9416 49.8297C20.9385 50.088 21.9975 49.959 22.9016 49.469C35.1664 42.8216 48.9565 39.4253 62.9357 39.6091C76.915 39.7929 90.6093 43.5506 102.692 50.5181C114.774 57.4856 124.835 67.4266 131.899 79.3779C138.964 91.3291 142.792 104.885 143.013 118.733C143.029 119.754 143.439 120.73 144.158 121.461C144.877 122.192 145.851 122.624 146.881 122.666L178.792 123.996Z" fill="#557029"/>
</svg>
