<svg width="173" height="173" viewBox="0 0 173 173" fill="none" xmlns="http://www.w3.org/2000/svg">
<path d="M85.7504 3.38155C85.748 2.99628 85.6682 2.61543 85.5155 2.26169C85.3629 1.90795 85.1407 1.58857 84.8621 1.32257C84.5835 1.05657 84.2542 0.849407 83.8939 0.713423C83.5335 0.577439 83.1495 0.515414 82.7647 0.531052C65.0853 1.24948 48.0567 7.40091 33.9972 18.1479C19.9377 28.8949 9.53027 43.7152 4.19186 60.5914C-1.14656 77.4676 -1.15661 95.5795 4.16307 112.462C9.48275 129.344 19.8737 144.176 33.9213 154.938C47.9689 165.701 64.9906 171.871 82.6692 172.609C100.348 173.347 117.824 168.617 132.719 159.063C147.615 149.509 159.205 135.594 165.912 119.215C172.619 102.835 174.118 84.7847 170.203 67.5223C170.118 67.1465 169.958 66.7918 169.733 66.4792C169.508 66.1666 169.222 65.9026 168.893 65.7028C168.564 65.5031 168.197 65.3717 167.816 65.3165C167.435 65.2613 167.047 65.2834 166.674 65.3815L86.2583 86.5721L85.7504 3.38155Z" fill="#557029"/>
</svg>
