<svg width="139" height="94" viewBox="0 0 139 94" fill="none" xmlns="http://www.w3.org/2000/svg">
<path d="M135.326 93.9095C135.737 93.9267 136.147 93.8613 136.532 93.7173C136.917 93.5734 137.268 93.3538 137.565 93.0719C137.862 92.79 138.098 92.4515 138.259 92.0768C138.42 91.7021 138.504 91.299 138.504 90.8916C138.503 75.0414 134.305 59.4688 126.329 45.7282C118.353 31.9876 106.879 20.5599 93.0511 12.5859C79.2232 4.61184 63.5258 0.370446 47.5259 0.285127C31.526 0.199807 15.7834 4.27355 1.86971 12.0997C1.51212 12.3008 1.19931 12.5715 0.950071 12.8955C0.700834 13.2195 0.520328 13.5901 0.419414 13.985C0.3185 14.3799 0.299261 14.7909 0.362857 15.1934C0.426452 15.5958 0.571569 15.9814 0.789474 16.3268L13.5693 36.587C13.9816 37.2407 14.6306 37.7135 15.3834 37.9086C16.1362 38.1036 16.9358 38.0062 17.6184 37.6362C26.8792 32.617 37.2917 30.0526 47.8469 30.1913C58.4022 30.3301 68.7423 33.1675 77.8653 38.4284C86.9883 43.6893 94.5849 51.1955 99.919 60.2195C105.253 69.2435 108.144 79.4794 108.311 89.9353C108.323 90.7061 108.632 91.443 109.175 91.9951C109.718 92.5473 110.454 92.8729 111.231 92.9053L135.326 93.9095Z" fill="#557029"/>
</svg>
