<svg width="12" height="16" viewBox="0 0 12 16" fill="none" xmlns="http://www.w3.org/2000/svg">
<path d="M11.0177 8.2475L10.0308 7.3325C9.79622 7.145 9.6587 6.8675 9.65061 6.56C9.63443 6.2225 9.78004 5.885 10.047 5.6375L11.0177 4.7375C11.859 3.9575 12.1745 3.2075 11.9075 2.615C11.6487 2.03 10.8478 1.7075 9.66679 1.7075H1.2134V1.0625C1.2134 0.755 0.938366 0.5 0.606702 0.5C0.275038 0.5 0 0.755 0 1.0625V14.9375C0 15.245 0.275038 15.5 0.606702 15.5C0.938366 15.5 1.2134 15.245 1.2134 14.9375V11.2775H9.66679C10.8317 11.2775 11.6163 10.9475 11.8833 10.355C12.1502 9.7625 11.8428 9.02 11.0177 8.2475Z" fill="white"/>
</svg>
