<svg width="51" height="51" viewBox="0 0 51 51" fill="none" xmlns="http://www.w3.org/2000/svg">
<path d="M36.0222 0.190918H15.1311C6.05671 0.190918 0.646973 5.60065 0.646973 14.675V35.5412C0.646973 44.6405 6.05671 50.0502 15.1311 50.0502H35.9972C45.0716 50.0502 50.4813 44.6405 50.4813 35.5661V14.675C50.5063 5.60065 45.0965 0.190918 36.0222 0.190918ZM37.493 19.3867L23.3579 33.5219C23.0089 33.8709 22.5352 34.0703 22.0366 34.0703C21.538 34.0703 21.0644 33.8709 20.7153 33.5219L13.6603 26.4668C12.9373 25.7438 12.9373 24.5472 13.6603 23.8242C14.3832 23.1013 15.5798 23.1013 16.3028 23.8242L22.0366 29.558L34.8505 16.7442C35.5734 16.0212 36.77 16.0212 37.493 16.7442C38.216 17.4672 38.216 18.6389 37.493 19.3867Z" fill="#557029"/>
</svg>
