<svg width="51" height="51" viewBox="0 0 51 51" fill="none" xmlns="http://www.w3.org/2000/svg">
<path d="M36.2975 0.190918H15.4065C6.3321 0.190918 0.922363 5.60065 0.922363 14.675V35.5412C0.922363 44.6405 6.3321 50.0502 15.4065 50.0502H36.2726C45.347 50.0502 50.7567 44.6405 50.7567 35.5661V14.675C50.7817 5.60065 45.3719 0.190918 36.2975 0.190918ZM37.7684 19.3867L23.6333 33.5219C23.2843 33.8709 22.8106 34.0703 22.312 34.0703C21.8134 34.0703 21.3397 33.8709 20.9907 33.5219L13.9356 26.4668C13.2127 25.7438 13.2127 24.5472 13.9356 23.8242C14.6586 23.1013 15.8552 23.1013 16.5782 23.8242L22.312 29.558L35.1258 16.7442C35.8488 16.0212 37.0454 16.0212 37.7684 16.7442C38.4914 17.4672 38.4914 18.6389 37.7684 19.3867Z" fill="#557029"/>
</svg>
