<svg width="51" height="51" viewBox="0 0 51 51" fill="none" xmlns="http://www.w3.org/2000/svg">
<path d="M36.027 0.190918H15.136C6.06159 0.190918 0.651855 5.60065 0.651855 14.675V35.5412C0.651855 44.6405 6.06159 50.0502 15.136 50.0502H36.0021C45.0765 50.0502 50.4862 44.6405 50.4862 35.5661V14.675C50.5112 5.60065 45.1014 0.190918 36.027 0.190918ZM37.4979 19.3867L23.3628 33.5219C23.0138 33.8709 22.5401 34.0703 22.0415 34.0703C21.5429 34.0703 21.0692 33.8709 20.7202 33.5219L13.6651 26.4668C12.9422 25.7438 12.9422 24.5472 13.6651 23.8242C14.3881 23.1013 15.5847 23.1013 16.3077 23.8242L22.0415 29.558L34.8553 16.7442C35.5783 16.0212 36.7749 16.0212 37.4979 16.7442C38.2208 17.4672 38.2208 18.6389 37.4979 19.3867Z" fill="#557029"/>
</svg>
