<svg width="15" height="16" viewBox="0 0 15 16" fill="none" xmlns="http://www.w3.org/2000/svg">
<path d="M13.524 4.11372L9.20828 1.09087C8.03196 0.265778 6.22626 0.310783 5.09491 1.18838L1.34116 4.12122C0.591909 4.70629 0 5.90643 0 6.8515V12.0271C0 13.9398 1.55095 15.5 3.46154 15.5H11.5385C13.449 15.5 15 13.9473 15 12.0346V6.94901C15 5.93643 14.3482 4.69129 13.524 4.11372ZM8.06193 12.4997C8.06193 12.8072 7.80718 13.0622 7.49999 13.0622C7.1928 13.0622 6.93805 12.8072 6.93805 12.4997V10.2494C6.93805 9.94186 7.1928 9.68683 7.49999 9.68683C7.80718 9.68683 8.06193 9.94186 8.06193 10.2494V12.4997Z" fill="white"/>
</svg>
