<svg width="83" height="87" viewBox="0 0 83 87" fill="none" xmlns="http://www.w3.org/2000/svg">
<path d="M80.4549 64.4257C80.8263 64.323 81.1732 64.1466 81.475 63.9069C81.7768 63.6672 82.0273 63.3692 82.2114 63.0307C82.3956 62.6921 82.5098 62.32 82.5472 61.9363C82.5845 61.5527 82.5442 61.1655 82.4288 60.7978C77.1151 43.8719 66.7065 28.9998 52.625 18.213C38.5435 7.4263 21.4759 1.2511 3.75392 0.531053C3.3689 0.515409 2.98467 0.577458 2.62412 0.713496C2.26358 0.849535 1.93411 1.05678 1.65534 1.32289C1.37657 1.58899 1.15422 1.9085 1.00153 2.26238C0.848833 2.61626 0.768929 2.99727 0.766575 3.38269L0.258301 86.6064L80.4549 64.4257Z" fill="#FFCB1C"/>
</svg>
