<svg width="15" height="18" viewBox="0 0 15 18" fill="none" xmlns="http://www.w3.org/2000/svg">
<path d="M14.7888 6.0561C13.9014 2.22488 10.4958 0.5 7.50424 0.5C7.50424 0.5 7.50424 0.5 7.49579 0.5C4.51266 0.5 1.09857 2.21659 0.211249 6.0478C-0.777484 10.3268 1.89294 13.9507 4.30984 16.2312C5.20562 17.0771 6.35494 17.5 7.50424 17.5C8.65353 17.5 9.80283 17.0771 10.6902 16.2312C13.1071 13.9507 15.7775 10.3351 14.7888 6.0561ZM7.50424 10.2107C6.03381 10.2107 4.84224 9.04146 4.84224 7.59854C4.84224 6.15561 6.03381 4.98634 7.50424 4.98634C8.97466 4.98634 10.1662 6.15561 10.1662 7.59854C10.1662 9.04146 8.97466 10.2107 7.50424 10.2107Z" fill="white"/>
</svg>
