<svg width="139" height="239" viewBox="0 0 139 239" fill="none" xmlns="http://www.w3.org/2000/svg">
<path d="M0 237.335C16.2592 240.085 32.9106 239.422 48.9011 235.388C64.8917 231.354 79.8734 224.037 92.8988 213.899C105.924 203.761 116.71 191.023 124.574 176.491C132.437 161.959 137.208 145.949 138.584 129.473C139.96 112.997 137.912 96.4142 132.568 80.773C127.224 65.1318 118.702 50.7726 107.54 38.6035C96.3775 26.4345 82.8183 16.7204 67.7197 10.0756C52.621 3.43088 36.3116 0 19.8227 0V94.405C23.2853 94.405 26.7103 95.1255 29.881 96.5209C33.0518 97.9163 35.8992 99.9562 38.2433 102.512C40.5874 105.067 42.3771 108.083 43.4992 111.367C44.6214 114.652 45.0516 118.134 44.7626 121.594C44.4736 125.054 43.4718 128.416 41.8204 131.468C40.169 134.52 37.904 137.195 35.1687 139.324C32.4333 141.453 29.2872 142.989 25.9292 143.837C22.5711 144.684 19.0744 144.823 15.6599 144.245L0 237.335Z" fill="#FFCB1C"/>
</svg>
