<svg width="183" height="167" viewBox="0 0 183 167" fill="none" xmlns="http://www.w3.org/2000/svg">
<path d="M44.4591 1.56197C44.2419 1.21606 43.9568 0.917452 43.6207 0.684099C43.2847 0.450746 42.9047 0.287475 42.5036 0.204106C42.1025 0.120737 41.6887 0.118995 41.2869 0.198983C40.8851 0.278971 40.5037 0.439032 40.1657 0.669547C27.4802 9.32043 17.1995 21.0257 10.2805 34.6959C3.36154 48.3661 0.0291923 63.5567 0.593671 78.8538C1.15815 94.1509 5.6011 109.057 13.509 122.185C21.4169 135.313 32.5326 146.236 45.8214 153.937C59.1103 161.638 74.1403 165.867 89.5125 166.23C104.885 166.593 120.099 163.078 133.74 156.013C147.381 148.948 159.004 138.562 167.528 125.822C176.052 113.082 181.2 98.4023 182.493 83.149C182.527 82.7426 182.479 82.3334 182.35 81.9461C182.222 81.5588 182.016 81.2014 181.745 80.8953C181.474 80.5893 181.144 80.341 180.774 80.1653C180.404 79.9896 180.003 79.8902 179.593 79.8731L155.585 78.8675C154.81 78.8351 154.052 79.0987 153.466 79.6044C152.881 80.11 152.511 80.8195 152.434 81.5875C151.414 91.7115 147.858 101.419 142.092 109.82C136.326 118.22 128.534 125.046 119.43 129.671C110.326 134.296 100.202 136.572 89.9849 136.29C79.7682 136.009 69.7858 133.179 60.9527 128.06C52.1197 122.941 44.7185 115.697 39.4276 106.992C34.1368 98.2866 31.1254 88.3984 30.6697 78.2338C30.2139 68.0691 32.3283 57.9532 36.819 48.8132C41.3097 39.6731 48.033 31.8014 56.3728 25.9195C57.0055 25.4733 57.4428 24.8032 57.5953 24.0464C57.7477 23.2896 57.6038 22.5035 57.193 21.8489L44.4591 1.56197Z" fill="#FFCB1C"/>
</svg>
