<svg width="109" height="114" viewBox="0 0 109 114" fill="none" xmlns="http://www.w3.org/2000/svg">
<path d="M106.211 84.6243C106.703 84.4882 107.163 84.2546 107.562 83.9371C107.962 83.6197 108.294 83.225 108.537 82.7767C108.781 82.3283 108.933 81.8354 108.982 81.3273C109.032 80.8193 108.978 80.3065 108.825 79.8195C101.788 57.4031 88.003 37.7066 69.3537 23.4209C50.7044 9.13509 28.1003 0.956749 4.62955 0.00313375C4.11963 -0.0175843 3.61076 0.0645921 3.13326 0.244759C2.65576 0.424927 2.21941 0.699403 1.85022 1.05183C1.48102 1.40425 1.18654 1.8274 0.984315 2.29608C0.782091 2.76475 0.676268 3.26935 0.67315 3.7798L0 114L106.211 84.6243Z" fill="#FFCB1C"/>
</svg>
