<svg width="241" height="220" viewBox="0 0 241 220" fill="none" xmlns="http://www.w3.org/2000/svg">
<path d="M58.176 1.8829C57.8885 1.42478 57.5108 1.0293 57.0658 0.720254C56.6207 0.411205 56.1174 0.19497 55.5863 0.0845581C55.0551 -0.0258541 54.507 -0.0281611 53.9749 0.0777739C53.4428 0.183709 52.9377 0.395691 52.49 0.700981C35.6896 12.1581 22.0739 27.6604 12.9105 45.765C3.7471 63.8695 -0.666211 83.9877 0.0813761 104.247C0.828963 124.506 6.71314 144.248 17.1862 161.634C27.6593 179.021 42.3808 193.487 59.9804 203.686C77.5799 213.885 97.4855 219.485 117.844 219.966C138.203 220.447 158.353 215.792 176.418 206.435C194.484 197.078 209.878 183.324 221.167 166.451C232.456 149.578 239.274 130.137 240.986 109.936C241.031 109.397 240.967 108.855 240.797 108.342C240.627 107.829 240.354 107.356 239.995 106.951C239.637 106.545 239.199 106.217 238.709 105.984C238.22 105.751 237.688 105.62 237.146 105.597L205.349 104.265C204.323 104.222 203.319 104.571 202.544 105.241C201.768 105.911 201.279 106.85 201.176 107.868C199.826 121.276 195.117 134.132 187.48 145.258C179.843 156.384 169.523 165.423 157.466 171.548C145.409 177.673 132.001 180.688 118.47 180.315C104.939 179.942 91.7183 176.195 80.02 169.415C68.3216 162.636 58.5196 153.042 51.5125 141.513C44.5054 129.984 40.5172 116.888 39.9136 103.426C39.31 89.964 42.1102 76.5666 48.0576 64.4616C54.005 52.3567 62.9093 41.9315 73.9544 34.1416C74.7923 33.5507 75.3715 32.6632 75.5734 31.6609C75.7754 30.6587 75.5848 29.6175 75.0406 28.7506L58.176 1.8829Z" fill="#FFCB1C"/>
</svg>
