<svg width="106" height="182" viewBox="0 0 106 182" fill="none" xmlns="http://www.w3.org/2000/svg">
<path d="M0.716309 179.998C12.9931 182.075 25.566 181.574 37.64 178.528C49.7139 175.482 61.0261 169.957 70.8612 162.302C80.6962 154.647 88.8401 145.029 94.7778 134.057C100.715 123.084 104.318 110.995 105.357 98.5548C106.396 86.1144 104.849 73.5932 100.814 61.783C96.7794 49.9728 90.3444 39.1307 81.9161 29.9422C73.4878 20.7538 63.2497 13.419 51.8492 8.40174C40.4487 3.38449 28.134 0.793945 15.6838 0.793945V72.0761C18.2983 72.0761 20.8844 72.6201 23.2785 73.6737C25.6726 74.7274 27.8226 76.2677 29.5926 78.1972C31.3625 80.1268 32.7139 82.4037 33.5612 84.8838C34.4085 87.3639 34.7333 89.9934 34.5151 92.6059C34.2969 95.2184 33.5404 97.757 32.2935 100.061C31.0466 102.366 29.3364 104.385 27.271 105.993C25.2057 107.6 22.8301 108.761 20.2946 109.4C17.759 110.04 15.1187 110.145 12.5406 109.709L0.716309 179.998Z" fill="#FFCB1C"/>
</svg>
