<svg width="228" height="228" viewBox="0 0 228 228" fill="none" xmlns="http://www.w3.org/2000/svg">
<path d="M113.327 3.77829C113.324 3.26804 113.218 2.76365 113.016 2.29516C112.814 1.82667 112.52 1.40369 112.151 1.05141C111.782 0.699124 111.346 0.424757 110.868 0.244662C110.391 0.0645664 109.883 -0.0175773 109.373 0.0031325C85.9587 0.954614 63.4063 9.10147 44.7861 23.3346C26.1659 37.5678 12.3825 57.1956 5.31236 79.5461C-1.75775 101.897 -1.77107 125.884 5.27424 148.242C12.3195 170.601 26.0811 190.244 44.6856 204.498C63.29 218.751 85.8333 226.923 109.247 227.901C132.66 228.878 155.805 222.614 175.532 209.96C195.259 197.307 210.609 178.879 219.492 157.186C228.375 135.492 230.359 111.587 225.175 88.7253C225.063 88.2277 224.851 87.7579 224.553 87.3439C224.254 86.9299 223.876 86.5802 223.44 86.3156C223.004 86.0511 222.519 85.8771 222.014 85.8039C221.509 85.7308 220.995 85.7602 220.502 85.8901L114 113.955L113.327 3.77829Z" fill="#557029"/>
</svg>
